<svg width="248" height="50" viewBox="0 0 248 50" fill="none" xmlns="http://www.w3.org/2000/svg">
<path d="M221.469 1.6898e-06H26.5106C24.3736 -0.000923905 22.2739 0.378415 20.4229 1.09984C18.5718 1.82127 17.0347 2.85934 15.9662 4.10959L1.63001 20.8904C0.56217 22.1399 0 23.5572 0 25C0 26.4428 0.56217 27.8601 1.63001 29.1096L15.9662 45.8904C17.0347 47.1407 18.5718 48.1787 20.4229 48.9002C22.2739 49.6216 24.3736 50.0009 26.5106 50H221.469C223.604 49.9997 225.702 49.6198 227.551 48.8984C229.4 48.1771 230.936 47.1396 232.003 45.8904L246.37 29.1096C247.438 27.8601 248 26.4428 248 25C248 23.5572 247.438 22.1399 246.37 20.8904L232.003 4.10959C230.936 2.86035 229.4 1.82293 227.551 1.10156C225.702 0.380188 223.604 0.000278767 221.469 1.6898e-06Z" fill="#D5FF2F"/>
<path d="M29.474 28.364C29.474 29.786 28.322 30.92 26.9 30.92V32C28.916 32 30.554 30.38 30.554 28.364V18.5H29.474V28.364ZM31.8092 25.25C31.8092 28.976 34.8332 32 38.5592 32C42.2852 32 45.3092 28.976 45.3092 25.25C45.3092 21.524 42.2852 18.5 38.5592 18.5C34.8332 18.5 31.8092 21.524 31.8092 25.25ZM32.8892 25.25C32.8892 22.118 35.4272 19.58 38.5592 19.58C41.6912 19.58 44.2292 22.118 44.2292 25.25C44.2292 28.382 41.6912 30.92 38.5592 30.92C35.4272 30.92 32.8892 28.382 32.8892 25.25ZM46.5446 32H47.6246V18.5H46.5446V32ZM48.8874 32H49.9674V19.58H50.1834L59.9214 32H61.0014V18.5H59.9214V30.272L50.6874 18.5H48.8874V32ZM70.7293 19.58H74.6893V32H75.7693V19.58H79.7293V18.5H70.7293V19.58ZM88.9023 32H89.9823V18.5H88.9023V24.71H82.0623V18.5H80.9823V32H82.0623V25.79H88.9023V32ZM91.2352 32H98.5252V30.92H92.3152V25.79H97.4452V24.71H92.3152V19.58H98.5252V18.5H91.2352V32ZM119.025 29.264C116.811 31.478 113.211 31.478 110.997 29.264C108.783 27.05 108.783 23.45 110.997 21.236C113.211 19.022 116.811 19.022 119.025 21.236L119.781 20.48C117.153 17.834 112.869 17.834 110.241 20.48C107.595 23.108 107.595 27.392 110.241 30.02C112.869 32.666 117.153 32.666 119.781 30.02L119.025 29.264ZM121.045 25.25C121.045 28.976 124.069 32 127.795 32C131.521 32 134.545 28.976 134.545 25.25C134.545 21.524 131.521 18.5 127.795 18.5C124.069 18.5 121.045 21.524 121.045 25.25ZM122.125 25.25C122.125 22.118 124.663 19.58 127.795 19.58C130.927 19.58 133.465 22.118 133.465 25.25C133.465 28.382 130.927 30.92 127.795 30.92C124.663 30.92 122.125 28.382 122.125 25.25ZM151.134 18.5H149.334L143.466 28.724L137.598 18.5H135.798V32H136.878V19.58H136.968L142.836 29.804H144.078L149.964 19.58H150.054V32H151.134V18.5ZM167.733 18.5H165.933L160.065 28.724L154.197 18.5H152.397V32H153.477V19.58H153.567L159.435 29.804H160.677L166.563 19.58H166.653V32H167.733V18.5ZM168.995 27.05C168.995 29.786 171.209 32 173.945 32C176.681 32 178.895 29.786 178.895 27.05V18.5H177.815V27.05C177.815 29.192 176.087 30.92 173.945 30.92C171.803 30.92 170.075 29.192 170.075 27.05V18.5H168.995V27.05ZM180.162 32H181.242V19.58H181.458L191.196 32H192.276V18.5H191.196V30.272L181.962 18.5H180.162V32ZM193.527 32H194.607V18.5H193.527V32ZM195.869 19.58H199.829V32H200.909V19.58H204.869V18.5H195.869V19.58ZM212.71 28.4V32H213.79V28.4L220.378 18.5H219.082L213.25 27.266L207.4 18.5H206.122L212.71 28.4Z" fill="#361281"/>
</svg>
