<svg width="243" height="32" viewBox="0 0 243 32" fill="none" xmlns="http://www.w3.org/2000/svg">
<path d="M3.752 7.324H2.52V26H3.752V16.368H15.064V26H16.296V7.324H15.064V15.248H3.752V7.324ZM24.9725 14.324C21.5845 14.324 18.9805 16.928 18.9805 20.316C18.9805 23.704 21.5845 26.308 24.9725 26.308C28.3605 26.308 30.9645 23.704 30.9645 20.316C30.9645 16.928 28.3605 14.324 24.9725 14.324ZM24.9725 25.244C22.2285 25.244 20.1565 23.088 20.1565 20.316C20.1565 17.544 22.2285 15.388 24.9725 15.388C27.7165 15.388 29.7885 17.544 29.7885 20.316C29.7885 23.088 27.7165 25.244 24.9725 25.244ZM33.1354 26H34.2554V19.392C34.2554 17.124 35.1794 15.388 37.1674 15.388C39.6314 15.388 39.6874 17.936 39.6874 18.664V26H40.8074V19.112C40.8074 18.412 40.8354 15.388 43.8594 15.388C44.3914 15.388 45.0634 15.5 45.5674 16.032C46.1834 16.676 46.2394 17.628 46.2394 18.384V26H47.3594V18.384C47.3594 17.46 47.3034 16.2 46.3794 15.276C45.8754 14.772 45.0634 14.324 43.8034 14.324C42.2914 14.324 41.0594 15.024 40.4154 16.396C40.1914 15.808 39.4634 14.324 37.2234 14.324C36.4394 14.324 35.1234 14.52 34.2554 16.004V14.576H33.1354V26ZM60.501 20.428C60.501 16.788 58.177 14.324 55.097 14.324C52.297 14.324 49.553 16.368 49.553 20.344C49.553 23.676 51.625 26.308 55.181 26.308C58.009 26.308 59.521 24.488 60.193 23.2L59.241 22.64C58.513 24.152 57.113 25.244 55.265 25.244C52.857 25.244 50.729 23.34 50.729 20.428H60.501ZM50.813 19.364C51.121 17.152 52.773 15.388 55.097 15.388C57.365 15.388 59.045 17.096 59.325 19.364H50.813Z" fill="white"/>
<line opacity="0.3" x1="81" y1="7" x2="81" y2="25" stroke="white" stroke-width="2" stroke-linecap="round"/>
<path d="M104.216 26C105.868 26 108.752 25.748 111.104 23.396C113.092 21.408 113.792 18.72 113.792 16.676C113.792 14.632 113.092 11.916 111.104 9.928C108.752 7.576 105.868 7.324 104.216 7.324H100.52V26H104.216ZM101.752 8.444H104.188C109.088 8.444 112.504 11.888 112.504 16.676C112.504 21.52 109.116 24.88 104.188 24.88H101.752V8.444ZM121.469 14.324C118.081 14.324 115.477 16.928 115.477 20.316C115.477 23.704 118.081 26.308 121.469 26.308C124.857 26.308 127.461 23.704 127.461 20.316C127.461 16.928 124.857 14.324 121.469 14.324ZM121.469 25.244C118.725 25.244 116.653 23.088 116.653 20.316C116.653 17.544 118.725 15.388 121.469 15.388C124.213 15.388 126.285 17.544 126.285 20.316C126.285 23.088 124.213 25.244 121.469 25.244ZM138.787 15.78C137.219 14.464 135.651 14.324 134.839 14.324C131.171 14.324 128.903 16.984 128.903 20.372C128.903 23.76 131.311 26.308 134.755 26.308C136.771 26.308 138.171 25.384 138.927 24.712V23.2C138.031 24.18 136.603 25.244 134.783 25.244C132.571 25.244 130.079 23.62 130.079 20.344C130.079 17.544 132.039 15.388 134.839 15.388C136.715 15.388 138.031 16.396 138.787 17.264V15.78ZM140.898 14.576V21.772C140.898 22.696 140.982 23.9 141.766 24.908C142.634 26.028 144.006 26.308 145.014 26.308C146.022 26.308 147.394 26.028 148.262 24.908C149.046 23.9 149.13 22.696 149.13 21.772V14.576H148.01V21.464C148.01 22.276 147.982 23.48 147.282 24.32C146.582 25.16 145.546 25.244 145.014 25.244C144.482 25.244 143.446 25.16 142.746 24.32C142.046 23.48 142.018 22.276 142.018 21.464V14.576H140.898ZM152.056 26H153.176V19.392C153.176 17.124 154.1 15.388 156.088 15.388C158.552 15.388 158.608 17.936 158.608 18.664V26H159.728V19.112C159.728 18.412 159.756 15.388 162.78 15.388C163.312 15.388 163.984 15.5 164.488 16.032C165.104 16.676 165.16 17.628 165.16 18.384V26H166.28V18.384C166.28 17.46 166.224 16.2 165.3 15.276C164.796 14.772 163.984 14.324 162.724 14.324C161.212 14.324 159.98 15.024 159.336 16.396C159.112 15.808 158.384 14.324 156.144 14.324C155.36 14.324 154.044 14.52 153.176 16.004V14.576H152.056V26ZM179.421 20.428C179.421 16.788 177.097 14.324 174.017 14.324C171.217 14.324 168.473 16.368 168.473 20.344C168.473 23.676 170.545 26.308 174.101 26.308C176.929 26.308 178.441 24.488 179.113 23.2L178.161 22.64C177.433 24.152 176.033 25.244 174.185 25.244C171.777 25.244 169.649 23.34 169.649 20.428H179.421ZM169.733 19.364C170.041 17.152 171.693 15.388 174.017 15.388C176.285 15.388 177.965 17.096 178.245 19.364H169.733ZM181.616 26H182.736V20.064C182.736 18.944 182.848 17.88 183.352 16.984C183.772 16.228 184.584 15.388 186.152 15.388C187.524 15.388 188.14 16.088 188.392 16.508C188.812 17.152 188.84 18.02 188.84 18.804V26H189.96V18.804C189.96 17.796 189.904 16.732 189.4 15.92C189.148 15.528 188.28 14.324 186.236 14.324C184.304 14.324 183.268 15.416 182.736 16.368V14.576H181.616V26ZM196.075 15.64V14.576H194.087V10.488H192.967V14.576H191.707V15.64H192.967V26H194.087V15.64H196.075ZM206.5 16.564C205.408 15.024 203.84 14.324 202.048 14.324C198.716 14.324 196.476 16.76 196.476 20.288C196.476 24.04 199.052 26.308 202.048 26.308C203.532 26.308 205.352 25.72 206.5 23.956V26H207.62V14.576H206.5V16.564ZM202.104 15.388C204.064 15.388 206.556 16.816 206.556 20.204C206.556 22.836 204.988 25.244 202.132 25.244C199.248 25.244 197.652 22.78 197.652 20.204C197.652 17.096 199.836 15.388 202.104 15.388ZM213.714 15.64V14.576H211.726V10.488H210.606V14.576H209.346V15.64H210.606V26H211.726V15.64H213.714ZM214.843 14.576V26H215.963V14.576H214.843ZM215.403 11.804C215.963 11.804 216.411 11.384 216.411 10.768C216.411 10.152 215.963 9.732 215.403 9.732C214.843 9.732 214.395 10.152 214.395 10.768C214.395 11.384 214.843 11.804 215.403 11.804ZM224.128 14.324C220.74 14.324 218.136 16.928 218.136 20.316C218.136 23.704 220.74 26.308 224.128 26.308C227.516 26.308 230.12 23.704 230.12 20.316C230.12 16.928 227.516 14.324 224.128 14.324ZM224.128 25.244C221.384 25.244 219.312 23.088 219.312 20.316C219.312 17.544 221.384 15.388 224.128 15.388C226.872 15.388 228.944 17.544 228.944 20.316C228.944 23.088 226.872 25.244 224.128 25.244ZM232.291 26H233.411V20.064C233.411 18.944 233.523 17.88 234.027 16.984C234.447 16.228 235.259 15.388 236.827 15.388C238.199 15.388 238.815 16.088 239.067 16.508C239.487 17.152 239.515 18.02 239.515 18.804V26H240.635V18.804C240.635 17.796 240.579 16.732 240.075 15.92C239.823 15.528 238.955 14.324 236.911 14.324C234.979 14.324 233.943 15.416 233.411 16.368V14.576H232.291V26Z" fill="white"/>
</svg>
