<svg width="200" height="50" viewBox="0 0 200 50" fill="none" xmlns="http://www.w3.org/2000/svg">
<path d="M178.604 1.6898e-06H21.3795C19.6561 -0.000923905 17.9628 0.378415 16.4701 1.09984C14.9773 1.82127 13.7377 2.85934 12.876 4.10959L1.31452 20.8904C0.453363 22.1399 0 23.5572 0 25C0 26.4428 0.453363 27.8601 1.31452 29.1096L12.876 45.8904C13.7377 47.1407 14.9773 48.1787 16.4701 48.9002C17.9628 49.6216 19.6561 50.0009 21.3795 50H178.604C180.326 49.9997 182.018 49.6198 183.509 48.8984C185 48.1771 186.238 47.1396 187.099 45.8904L198.685 29.1096C199.547 27.8601 200 26.4428 200 25C200 23.5572 199.547 22.1399 198.685 20.8904L187.099 4.10959C186.238 2.86035 185 1.82293 183.509 1.10156C182.018 0.380188 180.326 0.000278767 178.604 1.6898e-06Z" fill="#D5FF2F"/>
<path d="M29.07 18.5H27.9L33.876 32H35.676L41.652 18.5H40.482L34.974 30.92H34.578L29.07 18.5ZM42.8991 32H43.9791V18.5H42.8991V32ZM45.2419 32H52.5319V30.92H46.3219V25.79H51.4519V24.71H46.3219V19.58H52.5319V18.5H45.2419V32ZM54.9598 18.5H53.7898L59.7658 32H61.5658L63.3658 27.932L65.1658 32H66.9658L72.9418 18.5H71.7718L66.2638 30.92H65.8678L63.9418 26.6H62.7718L60.8638 30.92H60.4678L54.9598 18.5ZM88.6389 18.5L82.6629 32H83.8329L85.2009 28.94H93.8769L95.2449 32H96.4149L90.4389 18.5H88.6389ZM89.3409 19.58H89.7369L93.4089 27.86H85.6689L89.3409 19.58ZM98.7595 30.92V18.5H97.6795V32H104.97V30.92H98.7595ZM107.307 30.92V18.5H106.227V32H113.517V30.92H107.307ZM123.235 32H124.315V19.58H124.531L134.269 32H135.349V18.5H134.269V30.272L125.035 18.5H123.235V32ZM136.617 32H143.907V30.92H137.697V25.79H142.827V24.71H137.697V19.58H143.907V18.5H136.617V32ZM146.335 18.5H145.165L151.141 32H152.941L154.741 27.932L156.541 32H158.341L164.317 18.5H163.147L157.639 30.92H157.243L155.317 26.6H154.147L152.239 30.92H151.843L146.335 18.5ZM164.7 32H168.336C170.352 32 171.99 30.38 171.99 28.364C171.99 23.54 165.762 25.916 165.762 22.136C165.762 20.714 166.914 19.58 168.336 19.58H171.99V18.5H168.336C166.32 18.5 164.682 20.12 164.682 22.136C164.682 26.96 170.91 24.584 170.91 28.364C170.91 29.786 169.758 30.92 168.336 30.92H164.7V32Z" fill="#361281"/>
</svg>
