<svg width="78" height="194" viewBox="0 0 78 194" fill="none" xmlns="http://www.w3.org/2000/svg">
<path d="M36.2703 10.0348C36.2703 11.624 35.7987 13.1774 34.9152 14.4987C34.0317 15.8201 32.7759 16.8499 31.3067 17.458C29.8375 18.0662 28.2208 18.2253 26.6611 17.9153C25.1014 17.6052 23.6687 16.84 22.5442 15.7163C21.4197 14.5926 20.654 13.1609 20.3437 11.6023C20.0335 10.0437 20.1927 8.4282 20.8013 6.96003C21.4098 5.49186 22.4404 4.23699 23.7627 3.35411C25.0849 2.47123 26.6395 2 28.2298 2C30.3622 2 32.4074 2.84652 33.9153 4.35334C35.4232 5.86017 36.2703 7.90386 36.2703 10.0348Z" fill="#361280"/>
<path d="M28.2297 18.0697C32.6704 18.0697 36.2703 14.4723 36.2703 10.0348C36.2703 5.59731 32.6704 2 28.2297 2C23.7891 2 20.1892 5.59731 20.1892 10.0348C20.1892 14.4723 23.7891 18.0697 28.2297 18.0697Z" stroke="#FF2473" stroke-width="3" stroke-miterlimit="10"/>
<path d="M36.2703 53.5175C36.2703 55.1066 35.7987 56.6601 34.9152 57.9814C34.0317 59.3027 32.7759 60.3326 31.3067 60.9407C29.8375 61.5488 28.2208 61.708 26.6611 61.3979C25.1014 61.0879 23.6687 60.3227 22.5442 59.199C21.4197 58.0753 20.654 56.6436 20.3437 55.085C20.0335 53.5264 20.1927 51.9109 20.8013 50.4427C21.4098 48.9745 22.4404 47.7197 23.7627 46.8368C25.0849 45.9539 26.6395 45.4827 28.2298 45.4827C30.3622 45.4827 32.4074 46.3292 33.9153 47.836C35.4232 49.3428 36.2703 51.3865 36.2703 53.5175Z" fill="#361280"/>
<path d="M28.2297 61.5523C32.6704 61.5523 36.2703 57.955 36.2703 53.5175C36.2703 49.08 32.6704 45.4827 28.2297 45.4827C23.7891 45.4827 20.1892 49.08 20.1892 53.5175C20.1892 57.955 23.7891 61.5523 28.2297 61.5523Z" stroke="#FF2473" stroke-width="3" stroke-miterlimit="10"/>
<path d="M36.2703 97C36.2703 98.5892 35.7987 100.143 34.9152 101.464C34.0317 102.785 32.7759 103.815 31.3067 104.423C29.8375 105.031 28.2208 105.19 26.6611 104.88C25.1014 104.57 23.6687 103.805 22.5442 102.682C21.4197 101.558 20.654 100.126 20.3437 98.5676C20.0335 97.0089 20.1927 95.3934 20.8013 93.9252C21.4098 92.4571 22.4404 91.2022 23.7627 90.3193C25.0849 89.4364 26.6395 88.9652 28.2298 88.9652C30.3622 88.9652 32.4074 89.8117 33.9153 91.3186C35.4232 92.8254 36.2703 94.8691 36.2703 97Z" fill="#361280"/>
<path d="M28.2297 105.035C32.6704 105.035 36.2703 101.438 36.2703 97C36.2703 92.5625 32.6704 88.9652 28.2297 88.9652C23.7891 88.9652 20.1892 92.5625 20.1892 97C20.1892 101.438 23.7891 105.035 28.2297 105.035Z" stroke="#FF2473" stroke-width="3" stroke-miterlimit="10"/>
<path d="M36.2703 140.483C36.2703 142.072 35.7987 143.625 34.9152 144.946C34.0317 146.268 32.7759 147.298 31.3067 147.906C29.8375 148.514 28.2208 148.673 26.6611 148.363C25.1014 148.053 23.6687 147.288 22.5442 146.164C21.4197 145.04 20.654 143.609 20.3437 142.05C20.0335 140.491 20.1927 138.876 20.8013 137.408C21.4098 135.94 22.4404 134.685 23.7627 133.802C25.0849 132.919 26.6395 132.448 28.2298 132.448C30.3622 132.448 32.4074 133.294 33.9153 134.801C35.4232 136.308 36.2703 138.352 36.2703 140.483Z" fill="#361280"/>
<path d="M28.2297 148.517C32.6704 148.517 36.2703 144.92 36.2703 140.483C36.2703 136.045 32.6704 132.448 28.2297 132.448C23.7891 132.448 20.1892 136.045 20.1892 140.483C20.1892 144.92 23.7891 148.517 28.2297 148.517Z" stroke="#FF2473" stroke-width="3" stroke-miterlimit="10"/>
<path d="M36.2703 183.965C36.2703 185.554 35.7987 187.108 34.9152 188.429C34.0317 189.75 32.7759 190.78 31.3067 191.388C29.8375 191.997 28.2208 192.156 26.6611 191.846C25.1014 191.536 23.6687 190.77 22.5442 189.647C21.4197 188.523 20.654 187.091 20.3437 185.533C20.0335 183.974 20.1927 182.359 20.8013 180.89C21.4098 179.422 22.4404 178.167 23.7627 177.285C25.0849 176.402 26.6395 175.93 28.2298 175.93C30.3622 175.93 32.4074 176.777 33.9153 178.284C35.4232 179.791 36.2703 181.834 36.2703 183.965Z" fill="#361280"/>
<path d="M28.2297 192C32.6704 192 36.2703 188.403 36.2703 183.965C36.2703 179.528 32.6704 175.93 28.2297 175.93C23.7891 175.93 20.1892 179.528 20.1892 183.965C20.1892 188.403 23.7891 192 28.2297 192Z" stroke="#FF2473" stroke-width="3" stroke-miterlimit="10"/>
<path d="M76 10.0348C76 11.624 75.5285 13.1774 74.645 14.4987C73.7614 15.8201 72.5057 16.8499 71.0365 17.458C69.5673 18.0662 67.9506 18.2253 66.3909 17.9153C64.8311 17.6052 63.3985 16.84 62.274 15.7163C61.1495 14.5926 60.3837 13.1609 60.0734 11.6023C59.7632 10.0437 59.9224 8.4282 60.531 6.96003C61.1396 5.49186 62.1701 4.23699 63.4924 3.35411C64.8147 2.47123 66.3692 2 67.9595 2C70.092 2 72.1371 2.84652 73.645 4.35334C75.1529 5.86017 76 7.90386 76 10.0348Z" fill="#361280"/>
<path d="M67.9595 18.0697C72.4002 18.0697 76 14.4723 76 10.0348C76 5.59731 72.4002 2 67.9595 2C63.5188 2 59.9189 5.59731 59.9189 10.0348C59.9189 14.4723 63.5188 18.0697 67.9595 18.0697Z" stroke="#FF2473" stroke-width="3" stroke-miterlimit="10"/>
<path d="M76 53.5175C76 55.1066 75.5285 56.6601 74.645 57.9814C73.7614 59.3027 72.5057 60.3326 71.0365 60.9407C69.5673 61.5488 67.9506 61.708 66.3909 61.3979C64.8311 61.0879 63.3985 60.3227 62.274 59.199C61.1495 58.0753 60.3837 56.6436 60.0734 55.085C59.7632 53.5264 59.9224 51.9109 60.531 50.4427C61.1396 48.9745 62.1701 47.7197 63.4924 46.8368C64.8147 45.9539 66.3692 45.4827 67.9595 45.4827C70.092 45.4827 72.1371 46.3292 73.645 47.836C75.1529 49.3428 76 51.3865 76 53.5175Z" fill="#361280"/>
<path d="M67.9595 61.5523C72.4002 61.5523 76 57.955 76 53.5175C76 49.08 72.4002 45.4827 67.9595 45.4827C63.5188 45.4827 59.9189 49.08 59.9189 53.5175C59.9189 57.955 63.5188 61.5523 67.9595 61.5523Z" stroke="#FF2473" stroke-width="3" stroke-miterlimit="10"/>
<path d="M76 97C76 98.5892 75.5285 100.143 74.645 101.464C73.7614 102.785 72.5057 103.815 71.0365 104.423C69.5673 105.031 67.9506 105.19 66.3909 104.88C64.8311 104.57 63.3985 103.805 62.274 102.682C61.1495 101.558 60.3837 100.126 60.0734 98.5676C59.7632 97.0089 59.9224 95.3934 60.531 93.9252C61.1396 92.4571 62.1701 91.2022 63.4924 90.3193C64.8147 89.4364 66.3692 88.9652 67.9595 88.9652C70.092 88.9652 72.1371 89.8117 73.645 91.3186C75.1529 92.8254 76 94.8691 76 97Z" fill="#361280"/>
<path d="M67.9595 105.035C72.4002 105.035 76 101.438 76 97C76 92.5625 72.4002 88.9652 67.9595 88.9652C63.5188 88.9652 59.9189 92.5625 59.9189 97C59.9189 101.438 63.5188 105.035 67.9595 105.035Z" stroke="#FF2473" stroke-width="3" stroke-miterlimit="10"/>
<path d="M76 140.483C76 142.072 75.5285 143.625 74.645 144.946C73.7614 146.268 72.5057 147.298 71.0365 147.906C69.5673 148.514 67.9506 148.673 66.3909 148.363C64.8311 148.053 63.3985 147.288 62.274 146.164C61.1495 145.04 60.3837 143.609 60.0734 142.05C59.7632 140.491 59.9224 138.876 60.531 137.408C61.1396 135.94 62.1701 134.685 63.4924 133.802C64.8147 132.919 66.3692 132.448 67.9595 132.448C70.092 132.448 72.1371 133.294 73.645 134.801C75.1529 136.308 76 138.352 76 140.483Z" fill="#361280"/>
<path d="M67.9595 148.517C72.4002 148.517 76 144.92 76 140.483C76 136.045 72.4002 132.448 67.9595 132.448C63.5188 132.448 59.9189 136.045 59.9189 140.483C59.9189 144.92 63.5188 148.517 67.9595 148.517Z" stroke="#FF2473" stroke-width="3" stroke-miterlimit="10"/>
<path d="M76 183.965C76 185.554 75.5285 187.108 74.645 188.429C73.7614 189.75 72.5057 190.78 71.0365 191.388C69.5673 191.997 67.9506 192.156 66.3909 191.846C64.8311 191.536 63.3985 190.77 62.274 189.647C61.1495 188.523 60.3837 187.091 60.0734 185.533C59.7632 183.974 59.9224 182.359 60.531 180.89C61.1396 179.422 62.1701 178.167 63.4924 177.285C64.8147 176.402 66.3692 175.93 67.9595 175.93C70.092 175.93 72.1371 176.777 73.645 178.284C75.1529 179.791 76 181.834 76 183.965Z" fill="#361280"/>
<path d="M67.9595 192C72.4002 192 76 188.403 76 183.965C76 179.528 72.4002 175.93 67.9595 175.93C63.5188 175.93 59.9189 179.528 59.9189 183.965C59.9189 188.403 63.5188 192 67.9595 192Z" stroke="#FF2473" stroke-width="3" stroke-miterlimit="10"/>
</svg>
